# xmcd
#
# Track frame offsets: 
#        180
#        12762
#        23144
#        38709
#        51400
#        66946
#        79258
#        90881
#        103990
#        114567
#        125269
#        136963
#
# Disc length: 1968 seconds
#
# Revision: 0
# Processed by: cddbd v1.5.2PL0 Copyright (c) Steve Scherf et al.
# Submitted via: ExactAudioCopy v0.99pb3
#
DISCID=9807ae0c
DTITLE=Gail Bliss and Patsy Cline - Gail Bliss and Patsy Cline
DYEAR=1995
DGENRE=Pop
TTITLE0=Sweet Dreams (Gail Bliss)
TTITLE1=I Don't Wanna (Gail Bliss)
TTITLE2=Leavin' On Your Mind (Gail Bliss)
TTITLE3=Just A Closer Walk With Thee (Gail Bliss)
TTITLE4=Bill Bailey, Won't You Please Come Home? (Gail Bliss)
TTITLE5=Crazy (Gail Bliss)
TTITLE6=Walkin' After Midnight (Patsy Cline)
TTITLE7=Life's Railway to Heaven (Patsy Cline)
TTITLE8=Lovesick Blues (Patsy Cline)
TTITLE9=Gotta Lotta Rhythm In My Soul (Patsy Cline)
TTITLE10=In Care Of The Blues (Patsy Cline)
TTITLE11=Stop, Look, and Listen (Patsy Cline)
EXTD=
EXTT0=
EXTT1=
EXTT2=
EXTT3=
EXTT4=
EXTT5=
EXTT6=
EXTT7=
EXTT8=
EXTT9=
EXTT10=
EXTT11=
PLAYORDER=
